<?xml version="1.0" encoding="utf-8"?>
<!-- Generator: Adobe Illustrator 24.3.0, SVG Export Plug-In . SVG Version: 6.00 Build 0)  -->
<svg version="1.1" id="Layer_1" xmlns="http://www.w3.org/2000/svg" xmlns:xlink="http://www.w3.org/1999/xlink" x="0px" y="0px"
	 viewBox="0 0 144 32.5" style="enable-background:new 0 0 144 32.5;" xml:space="preserve">
<style type="text/css">
	.st0{fill:#002D74;}
</style>
<g>
	<path d="M139.4,22.1H134c-2.7,0-4.1,1.2-4.1,3.3s1.3,3.3,4.2,3.3c1.8,0,3.1-0.1,4.3-1.3c0.7-0.7,1-1.8,1-3.4V22.1z M139.5,32.2
		v-2.1c-1.7,1.7-3.3,2.4-6.1,2.4c-2.9,0-4.8-0.7-6.2-2.1c-1.2-1.2-1.8-3-1.8-4.9c0-3.8,2.7-6.6,7.9-6.6h6.1v-1.6
		c0-2.9-1.4-4.3-5-4.3c-2.5,0-3.8,0.6-5,2.2l-3-2.8c2.2-2.5,4.4-3.3,8.2-3.3c6.3,0,9.5,2.7,9.5,7.9v15.3H139.5z"/>
	<path d="M123.5,32.2c-4.4,0-6.3-2.9-6.3-6.3V0h4.6v25.6c0,5.7,4,6.6,4,6.6H123.5z"/>
	<path d="M99.6,18.9c0-1.4,0.1-2.1,0.6-3.1c0.7-1.7,2.4-2.9,4.6-2.9c2.2,0,3.8,1.2,4.5,2.9c0.5,1,0.6,1.7,0.6,3.1H99.6z M104.7,9
		C98.8,9,95,13.3,95,20.7c0,8.7,4.6,11.8,10.3,11.8c4,0,6.2-1.2,8.6-3.6l-2.9-2.8c-1.6,1.6-3,2.4-5.6,2.4c-3.8,0-5.8-2.5-5.8-6.4
		h14.9v-2C114.4,13.5,110.9,9,104.7,9"/>
	<path d="M74.9,26.3c-1.6,1.5-2.8,2.1-4.7,2.1c-1.9,0-3.6-0.7-4.7-2c-1.1-1.3-2.1-2.9-2.1-5.6c0-2.7,1-4.3,2.1-5.6
		c1.1-1.3,2.7-2,4.7-2c2,0,3.2,0.6,4.7,2.1c0.5-1.7,1.3-3.1,2.1-4.2c-2-1.4-4.1-2-6.9-2C64.5,9,59,12.1,59,20.7
		c0,8.6,5.6,11.8,11.2,11.8c2.8,0,4.9-0.6,6.8-2C76.2,29.4,75.5,28,74.9,26.3"/>
	<path d="M92.7,26.3c-1.6,1.5-2.8,2.1-4.7,2.1c-1.9,0-3.6-0.7-4.7-2c-1.1-1.3-2.1-2.9-2.1-5.6c0-2.7,1-4.3,2.1-5.6
		c1.1-1.3,2.7-2,4.7-2c2,0,3.2,0.6,4.7,2.1c0.5-1.7,1.3-3.1,2.1-4.2c-2-1.4-4.1-2-6.9-2c-5.7,0-11.2,3.1-11.2,11.7
		c0,8.6,5.6,11.8,11.2,11.8c2.8,0,4.9-0.6,6.8-2C94,29.4,93.3,28,92.7,26.3"/>
</g>
<path d="M45.4,7.3l-5,14.3h9.9L45.4,7.3z M53.9,32.2l-2.2-6.5H39l-2.2,6.5h-5.2L43.4,0h3.9l11.8,32.2H53.9z"/>
<g>
	<path class="st0" d="M13,21.7c-3.3,0-6.3,1.3-8.7,3.6l-0.2,0.2l-2.7-2.7l0.2-0.2c3.1-3,7.1-4.7,11.4-4.7c4.9,0,9.3,1.6,12.3,5.1V0
		H0c0.6,6.2,5.9,10.5,12.3,10.5c3.3,0,6.3-1.3,8.7-3.6l0.2-0.2L24,9.5l-0.2,0.2c-3.1,3-7.1,4.7-11.4,4.7C7.4,14.4,3,12.8,0,9.3v22.9
		h25.3C24.7,26,19.4,21.7,13,21.7"/>
</g>
</svg>
